<svg id="Lager_1" data-name="Lager 1" xmlns="http://www.w3.org/2000/svg" viewBox="0 0 797.9 148.32">
  <defs>
    <style>
      .cls-1 {
        fill: #fff;
      }

      .cls-2 {
        fill: #1e1e1c;
      }

      .cls-3 {
        fill: #4b69b0;
      }

    </style>
  </defs>
  <title>l2e_logo_white</title>
  <path class="cls-1" d="M2.09,118.14v-96H21.32v79.7H41.1v16.32Z" transform="translate(-2.09)" />
  <path class="cls-1" d="M54.29,118.14v-96H92.74V40.68H73.85V59.35H92v18.1H73.85v22H94v18.67Z" transform="translate(-2.09)" />
  <path class="cls-1" d="M105.6,118.14l9.27-96H147.4l9.16,96H138.35L137,102.6H125.38l-1.12,15.54Zm21.23-30.85h8.72L131.3,38.44h-.89Z" transform="translate(-2.09)" />
  <path class="cls-1" d="M170.2,22.12h29.51q7,0,10.9,3.19a15.78,15.78,0,0,1,5.19,8.94A66.13,66.13,0,0,1,217.15,49q0,8.16-2.13,12.74a11.88,11.88,0,0,1-7.38,6.37A8.89,8.89,0,0,1,214,72.42c1.3,2.31,2,5.44,2,9.39l-.23,36.33H196.91V80.58q0-4-1.56-5.14c-1-.74-2.95-1.12-5.7-1.12v43.82H170.2Zm24.14,35.55q4,0,4-8.72a34.79,34.79,0,0,0-.34-5.7,4.21,4.21,0,0,0-1.23-2.63,4,4,0,0,0-2.57-.72h-4.47V57.67Z" transform="translate(-2.09)" />
  <path class="cls-1" d="M231.34,118.14v-96h19.78L260,68.06V22.12h18.56v96H259.73l-9.61-48.06v48.06Z" transform="translate(-2.09)" />
  <path class="cls-1" d="M464,118.14v-96h38.45V40.68H483.56V59.35h18.11v18.1H483.56v22h20.12v18.67Z" transform="translate(-2.09)" />
  <path class="cls-1" d="M521.79,112.55Q516,106.07,516,91.65V82.26h18.89v12c0,4.77,1.52,7.15,4.58,7.15A4,4,0,0,0,543,99.86c.67-1,1-2.7,1-5.08A22.89,22.89,0,0,0,542.91,87a16.72,16.72,0,0,0-2.85-5.14q-1.72-2.07-6.2-6.43l-8.27-8.27Q516,57.78,516,46.38q0-12.3,5.64-18.72t16.49-6.43q13,0,18.66,6.87t5.71,21.52H542.91L542.8,43a4.18,4.18,0,0,0-1.06-3,3.87,3.87,0,0,0-3-1.12,4.29,4.29,0,0,0-3.35,1.23,4.78,4.78,0,0,0-1.12,3.35q0,4.7,5.36,9.73l11.18,10.73a63.06,63.06,0,0,1,6.48,7.21,28.15,28.15,0,0,1,4.14,8,34.63,34.63,0,0,1,1.56,11q0,14.19-5.19,21.51T540.68,119Q527.6,119,521.79,112.55Z" transform="translate(-2.09)" />
  <path class="cls-1" d="M577.23,22.12H602.6q11.52,0,16.43,7.44T624,51.3q0,14.31-4.36,21.57t-15.65,7.27h-7.82v38H577.23Zm20,40.69a8.19,8.19,0,0,0,5.08-1.28,6.16,6.16,0,0,0,2.13-3.69A36.32,36.32,0,0,0,605,51q0-6-1.34-8.72c-.9-1.78-2.68-2.68-5.37-2.68h-2.12V62.81Z" transform="translate(-2.09)" />
  <path class="cls-1" d="M643.06,111.94q-6-7.11-6-20V46.27q0-12.41,6-18.72t17.66-6.32q11.63,0,17.66,6.32t6,18.72V92q0,13-6,20t-17.66,7Q649.1,119,643.06,111.94Zm21.13-12.8a17.58,17.58,0,0,0,.89-6.26V45.93a13,13,0,0,0-.84-5.08,3.31,3.31,0,0,0-3.41-2q-4.8,0-4.8,7.27V93a15.2,15.2,0,0,0,1,6.26,3.71,3.71,0,0,0,3.69,2.12A3.4,3.4,0,0,0,664.19,99.14Z" transform="translate(-2.09)" />
  <path class="cls-1" d="M700,22.12h29.5q7,0,10.9,3.19a15.82,15.82,0,0,1,5.2,8.94A66.81,66.81,0,0,1,746.9,49q0,8.16-2.12,12.74a11.93,11.93,0,0,1-7.38,6.37,8.91,8.91,0,0,1,6.32,4.36q1.95,3.47,1.95,9.39l-.22,36.33H726.67V80.58q0-4-1.56-5.14c-1.05-.74-3-1.12-5.71-1.12v43.82H700ZM724.1,57.67q4,0,4-8.72a36.22,36.22,0,0,0-.33-5.7,4.32,4.32,0,0,0-1.23-2.63A4,4,0,0,0,724,39.9h-4.47V57.67Z" transform="translate(-2.09)" />
  <path class="cls-1" d="M769.37,118.14V40.57H758V22.12h42V40.57h-11.4v77.57Z" transform="translate(-2.09)" />
  <line class="cls-2" x1="260.88" y1="40.31" x2="260.88" y2="41.93" />
  <path class="cls-1" d="M323.67,0l0,0A27.49,27.49,0,0,0,297.16,27.1h0V148.32H419l0,0a27.47,27.47,0,0,0,26.49-27.07h0V0Z" transform="translate(-2.09)" />
  <path class="cls-3" d="M328.83,8l0,0A24.51,24.51,0,0,0,305.19,32.2h0V140.29h108.6l0,0a24.5,24.5,0,0,0,23.62-24.14h0V8Z" transform="translate(-2.09)" />
  <line class="cls-1" x1="413.69" y1="104.05" x2="423.08" y2="104.05" />
  <path class="cls-1" d="M406.41,29H326.09a9.37,9.37,0,0,0-9.36,9h0v.22c0,.05,0,.11,0,.16s0,.11,0,.16v9.22h89.69V66.52h-89.7v56.29h99.08a9.37,9.37,0,0,0,9.36-9h0v-.22s0-.11,0-.16,0-.11,0-.17v-9.21H335.47V85.28h89.7V29Z" transform="translate(-2.09)" />
</svg>
